<svg width="107" height="130.048" xmlns="http://www.w3.org/2000/svg"><path d="M24.037 0h5.081c.177.065.349.165.529.2a.728.728 0 0 0 .05.009c6.792.843 12.373 3.929 16.626 9.253 1.566 1.96 2.75 4.228 4.091 6.33a21.745 21.745 0 0 1 4.735-3.386c7.01-3.683 14.927-2.674 20.544 1.013.621.407 1.218.85 1.787 1.328a19.753 19.753 0 0 1 6.932 11.512c.26 1.296.4 2.612.42 3.934.05 3.834-.997 7.46-3.128 10.915a25.971 25.971 0 0 1-1.264 1.86h5.872v12.628A2377750.598 2377750.598 0 0 0 107 49.342v47.952l-7.705-2.33-13.053-3.945v12.692H55.904l.008.012c.33.493.559.848.788 1.183l.078.113 4.99 7.162c3.899 5.594 7.796 11.19 11.692 16.786.157.236.302.48.432.733.063.117.126.233.191.348h-9.145l-8.891-12.744-8.892-12.743-.251.123-.003.002v25.362H39.28v-25.71c-.339.436-.477.6-.592.762l-.013.02a28752.865 28752.865 0 0 0-16.832 24.151 2.197 2.197 0 0 0-.246.524c-.031.085-.065.17-.1.253h-9.4c.22-.358.421-.727.66-1.07l9.898-14.21.144-.206a77084.477 77084.477 0 0 0 6.804-9.768c.217-.321.434-.674.774-1.198l.008-.013H0V42.882h8.491c-.344-.39-.511-.579-.679-.767C-3.19 29.693.552 10.818 14.414 3.193c1.32-.725 2.701-1.334 4.127-1.821A34.007 34.007 0 0 1 22.28.4C22.867.274 23.452.14 24.036 0zm54.59 50.684H7.625V95.93h71.002V50.684zm-51.934-7.74c9.717-.001 17.636-7.88 17.662-17.573v-.049c-.002-9.747-7.882-17.66-17.63-17.701h-.02A17.653 17.653 0 0 0 9.023 25.283a17.62 17.62 0 0 0 17.67 17.662zm50.496-12.58a12.555 12.555 0 0 0-12.579-12.61c-6.933-.01-12.574 5.58-12.626 12.514v.06c0 6.974 5.647 12.623 12.626 12.616a12.564 12.564 0 0 0 12.579-12.58zm22.21 56.667V59.604L86.323 63.57v19.498l1.315.398L99.4 87.031zM22.28.4L22.284.4m51.608 129.3l.001.002" fill="#fff" fill-rule="evenodd"/></svg>